# xmcd
#
# Track frame offsets: 
#        150
#        13265
#        28658
#        44975
#        61870
#        77005
#        89600
#        105548
#        118595
#        134785
#
# Disc length: 1985 seconds
#
# Revision: 2
# Processed by: cddbd v1.5.1PL0 Copyright (c) Steve Scherf et al.
# Submitted via: ExactAudioCopy v0.95a5
#
DISCID=8d07bf0a
DTITLE=Barbara Mandrell - Morning Sun
DYEAR=1900
DGENRE=Country
TTITLE0=The Nearness Of You
TTITLE1=Do You Know Where Your Man Is
TTITLE2=I'm Not Your Superwoman
TTITLE3=Trying Times
TTITLE4=Crazy Arms (Duet With Ray Price)
TTITLE5=You Wouldn't Know Love (If It Looked You In The Eye)
TTITLE6=Baby I Hate
TTITLE7=It's Over For The Last Time Again
TTITLE8=Why Do Bad Things Happen To Good People
TTITLE9=You've Become The Dream
EXTD=
EXTT0=
EXTT1=
EXTT2=
EXTT3=
EXTT4=
EXTT5=
EXTT6=
EXTT7=
EXTT8=
EXTT9=
PLAYORDER=
